<!-- Copyright 2021 Peter Beverloo & AnimeCon. All rights reserved.
     Use of this source code is governed by a MIT license that can be
     found in the LICENSE file. -->
<svg xmlns="http://www.w3.org/2000/svg" xmlns:xlink="http://www.w3.org/1999/xlink" viewBox="0 0 500 500">
    <style>
        circle, path {
            fill: #3e2723;
            stroke: #3e2723;
        }

        textPath {
            font-size: 40px;
            font-family: Franklin Gothic, sans-serif;
            font-weight: 900;
            text-transform: uppercase;
            letter-spacing: 6px;
        }
    </style>

    <!-- Yellow highlight colour: #f8b40c -->
    <!-- Skin colour: #eeae91 -->

    <!-- (1) Marieke -->
    <g>
        <!-- White background -->
        <path style="fill: #ffffff; stroke: none"
              d="m106 291 L211 291 L177 311 L173 381 L110 381 L70 330 L106 300" />
        <path style="fill: #ffffff; stroke: none"
              d="m99 251 L99 225 L134 225 L144 232 L161 220 L186 220 L171 233 L164 247 L130 239" />
        <path style="fill: #ffffff; stroke: none"
              d="m77 193 L66 174 L81 169 L96 195 L115 191 L111 203 L95 203" />
        <path style="fill: #ffffff; stroke: none"
              d="m118 106 L195 58 L257 58 L279 93 L274 106 L274 126 L257 136 L249 147 L229 152 L215 164 L203 121 L183 106" />

        <!-- Yellow highlights -->
        <rect style="fill: #f8b40c; stroke: none"
              x="162" y="196" width="17" height="10" />
        <path style="fill: #f8b40c; stroke: none"
              d="m162 105 L182 85 L220 95 L247 86 L261 119 L220 137 L207 116" />
        <path style="fill: #f8b40c; stroke: none"
              d="m160 106 L112 136 L92 155 L113 187 L97 194 L74 159 L122 106" />

        <!-- Skin colour -->
        <path style="fill: #eeae91; stroke: none"
              d="m96 284 L81 272 L81 259 L96 239 L101 253 L119 243 L152 243 L162 246 L170 237 L177 225 L207 225 L220 269 L191 284" />
        <path style="fill: #eeae91; stroke: none"
              d="m92 154 L158 106 L191 110 L211 141 L211 168 L170 197 L121 202" />
        <path style="fill: #eeae91; stroke: none"
              d="m144 232 L130 221 L162 206 L178 207 L202 195 L202 227 L165 218" />
        <path style="fill: #eeae91; stroke: none"
              d="m203 397 L203 442 L120 397" />

        <!-- Outline of their body -->
        <path d="m241 61 1 1c1-1 1-2-1-2v1z"/>
        <path d="M257 62c5 4 8 9 8 13s0 4 3 5c5 2 9 10 7 18 0 1-1 5-3 6l-3 4 2 3c3 4 2 9-2 15-3 5-7 7-12 7-2-1-2 0-3 4l-2 6c-3 3-10 5-15 5-5-1-5 0-3-8 0-4 1-4 9-8l12-5c4-1 9-6 9-10 0-2-8-21-13-28l-4-6c-3-1-3-1-13 4l-11 5-4-5c-4-6-10-11-18-15-7-3-7-3-11-2l-4 1 6 2c9 3 18 9 26 18 2 3 2 3 1 4l-6-4c-3-2-7-5-11-6-14-5-25-1-36 14-4 5-5 6-7 6-6-2-15-2-23-1-7 1-10 2-12 4l-3 3 6-2c5-2 10-2 19-3h13l-11 6c-30 16-50 31-68 53l-3 5-1 4 2-2c3-2 3-2 8 11 6 14 10 17 19 12 4-2 5-2 6 0 2 2 1 4-3 6-2 2-5 2-8 2-6-1-9-3-12-8-2-2-3-3-6-3s-4-1-7-4c-3-4-4-4-4 0-1 2-1 3 2 5l7 3c3-1 3 0 4 2 2 4 7 9 12 10s12-1 16-5l3-2 3 2c3 2 5 2 13 3 10 0 20-1 27-3l2 1c0 2-2 3-17 6l-7 2-4-2c-5-2-6-2-15-2-17 1-32 8-39 19-6 9-7 21-2 29l2 10c0 5 0 7 3 10 3 6 10 9 18 10h7v7l-1 7-8 6-15 13-6 6 1 4 3 5 6-10c5-10 7-13 17-19 4-3 5-4 5-7 1-3 1-4 6-4 10-1 29 0 38 2 8 2 28 11 28 13s-3 2-9 0c-6-3-15-5-15-4l3 7a173 173 0 0 1 12 67l-30 2h-28l4 4 11 11 8 6h24c20 0 29 0 39-2 1 0 2 3 2 14 0 17 0 20 3 20l1-18v-18l6-2c7-3 7-2 4-18-5-26-16-48-30-60l-6-5 7-3c22-10 34-19 40-30 2-3 3-4 7-5 11-1 24-10 29-19a47 47 0 0 0 1-29l-2-11-9-11c-7-11-9-12-14-14l-10-2c-6 0-14 3-19 6l-3 3-3-3c-1-3-2-4-2-9s0-5 6-9a130 130 0 0 0 23-25l5 1c10 3 22-5 22-15 0-2 0-2 2-2 6 3 16-5 18-13 1-4 0-10-2-13-1-1-1-2 1-4 3-3 6-9 6-13 0-5-5-13-10-15-3-1-4-2-4-4 2-7-3-14-10-14h-4l3 2zm-56 28c11 3 17 12 21 29v3l-4-3c-13-8-26-13-41-14l-11-1 3-5c6-9 19-13 32-9zm46 1c5 5 12 24 11 27l-17 9c-20 10-21 10-26 1l-3-7 5 2c8 4 9 2 6-12 0-4-2-9-3-10l-1-3 7-3 11-5c6-3 6-3 10 1zm-66 19c8 1 8 1 12 6 12 14 18 30 18 43 0 8-1 9-11 17-24 17-44 24-65 24-13 0-19-3-21-13-1-7-3-10-11-20s-9-12-7-14h3c0 2 1 1 4-2l7-5 5-2c2-1 2-1 0-3s-2-2 9-10c11-7 27-18 34-21 4-2 13-2 23 0zm22 6c3 1 4 3 7 10l6 11c3 3 4 3 7 3l6-1c3-2 3 0-1 7-2 6-12 18-13 18l-1-7c0-13-5-28-12-37-4-5-4-6 1-4zM94 160l7 9c5 7 8 15 7 18l-5 3c-4 2-5 2-7 1l-12-24 8-9 2 2zm84 39c1 4-6 9-12 7-3-1-4-4-1-5l6-2c6-2 7-2 7 0zm24 1-3 5-4 9c-3 6-3 6-6 6l-8-2c-11-3-26 0-33 9l-4 4-3-4-7-4-3-2 3-1 12-5 13-5h7c5 2 10 1 14-3l5-2c3 0 10-3 13-6 1-2 2-2 3-1l1 2zm-26 22c3 0 3 1 0 3-3 1-7 7-7 10 0 2-1 4-4 6-4 3-4 3-7 1l-9-2-6-2 6-8c6-7 19-11 27-8zm-39 7c6 3 7 9 1 9s-22 3-27 6c-3 1-6 3-7 5-2 2-2 2-4 1v-12c6-11 25-16 37-9zm62-1 2 6c0 3-1 4-2 2l-12-2c-4 1-3 3 1 3s12 3 13 6c3 5 0 10-6 13s-9 3-14 0l-15-11 9-8c3 0 3-2 0-2-2 0-2 0-1-3 2-3 9-6 16-6 5 0 7 0 9 3zm-46 18c6 1 15 6 25 12 4 3 7 4 11 4 7 0 11-1 15-6l3-3 3 3 6 6v6c-4 4-15 10-23 12-18 5-48 1-67-9l-21-15c-3-3-2-5 4-8 8-5 30-6 44-2zm-57 0 3 6c11 13 14 16 20 20l6 5c0 1-5 2-11 2-15 3-25 1-29-5-4-5-1-17 6-26 4-4 5-5 5-2z"/>
        <path d="M153 114c-4 2-10 11-7 11l6-3c5-3 6-4 14-3 10 0 11-1 4-4-5-2-12-2-17-1zm7 12c-3 2-6 6-6 9 0 2 3 1 5-1l6-3c5-1 7 0 9 5 2 4 1 7-2 10-2 2-3 2-6 1h-4l8 9 4 3c2 0 1 2-2 3-4 2-2 3 4 2s12-5 14-10 2-6-1-4c-1 2-2 2-1-3 0-4 0-5-3-10-4-5-4-5-2-5 6 0-7-7-15-8-3 0-5 0-8 2zm-44 36c-3 4-2 10 3 17 2 4 6 6 5 3-7-17-5-22 6-15 7 5 7 3 0-3-6-6-10-7-14-2zm48 13-11 7-6 4h10c4-2 11-9 11-11l1-2c1-3-1-2-5 2zm47-110 1 1 1-1-2-1v1z"/>
    </g>

    <!-- (2) Clara -->
    <g>
        <!-- White background -->
        <path style="fill: #ffffff; stroke: none"
              d="m222 397 l5 -38 l9 9 l-2 35 l10 38 h-10" />
        <path style="fill: #ffffff; stroke: none"
              d="m199 269 L215 228 L242 195 L265 180 L267 185 L267 213 L247 242" />
        <path style="fill: #ffffff; stroke: none"
              d="m357 151 L379 151 L427 171 L458 201 L423 201 L377 185" />
        <path style="fill: #ffffff; stroke: none"
              d="m252 450 l20 -116 v-64 l-3 -59 l-3 -37 l46 -20 l44 -2 l35 80 l1 22 l-19 18 l20 22 l37 -2 l21 38 l-118 120" />

        <!-- Yellow highlights -->
        <path style="fill: #f8b40c; stroke: none"
              d="m261 170 l10 -8 h7 L286 167 v7 l-10 7 h-6 l-6 -6" />
        <path style="fill: #f8b40c; stroke: none"
              d="m331 141 l6 -4 h9 l6 5 v6 l-6 9 h-11 l-4 -5" />
        <path style="fill: #f8b40c; stroke: none"
              d="m359 265 L360 274 L367 281 h10 L388 274 h-7 L377 257 L382 253 L394 267 v9 L386 285 L374 288 h-13 L353 277 v-9" />

        <!-- Snout -->
        <path style="fill: #eeae91; stroke: none"
              d="m347 281 L349 269 L359 255 L375 249 L384 249 L394 256 L381 267 L351 281" />

        <!-- Outline of their body -->
        <path d="m343 136.6-5.4.9c-5.4.9-8.6 4.4-8.6 9.3 0 3.7-.2 4-3.2 4.5a130 130 0 0 0-21.8 5.2 97.5 97.5 0 0 0-15.1 8.2c-1.5 1.2-2 1.1-4.2-1.1-3.8-3.8-12.3-3.4-17.3.6-5.5 4.5-7.4 7.3-7.4 11.4 0 3.7-.4 4.4-3.7 6.6-2.1 1.3-5.3 3-7 3.7-1.8.8-3.3 1.7-3.3 2.2 0 .5-1.3 1.5-3 2.4-1.6.8-6.7 5.3-11.2 9.9-6.9 6.8-9.9 11-17.5 24.2a254.8 254.8 0 0 0-12.2 23.4c-3 7.6-6.7 23.7-5.7 24.7 1.6 1.6 31.4-11.4 38.2-16.6l4.5-3.1c2.3-1.5 15.5-14.5 17.4-17.1l3.6-4.9a56 56 0 0 0 4.1-6.4l1.5-2.8 1.2 4.3c5.6 21.1 6.2 83.1 1 117.4-1.8 12.1-4.8 29.6-6.9 41.5a765.3 765.3 0 0 0-6.4 37.1 14 14 0 0 1-.8 3.5c-.3.5-.9 4-1.3 7.7-.5 5.6-.9 6.6-2 5.7-.8-.7-1.9-2.6-2.5-4.4-.6-1.8-1.9-5-3-7.1-1.1-2.2-2-4.6-2-5.5 0-.8-.7-2.7-1.4-4.2-2.3-4.4-3.8-17.1-4-33.3l-.1-15 3.5-1.7c1.9-1 4-1.7 4.7-1.8 2.3 0 13.2-11.6 15.7-16.6 3.2-6.6 4.2-16 2.7-25a41 41 0 0 0-2-7.9c-.5-.5-1.2-2.1-1.6-3.5-2.2-7.2-15.8-21-20.6-21-3.3 0-3.7 2-1.7 7.6 1 2.8.8 4.3-1.1 10.1-2.4 7.1-2.2 6.8-16.8 19.9-2.9 2.6-6 6-6.8 7.7-1.7 3.4-2.1 15.2-.5 16.2.6.4.8 1 .5 1.5-.3.4 1.7 3.3 4.5 6.3 5 5.4 5.8 7.4 4.1 9.3a121.9 121.9 0 0 0-.2 52.9 46 46 0 0 1 2.1 7.1c.6 2.9 2.4 6.7 4.1 8.7l3 3.7h16.4c13 0 20.3-.6 36.4-3 18.9-2.8 21-3.4 34.9-8.9 37.7-15.1 71-41.3 90.6-71.3l7.5-11.6 6.8-2c9.6-3 14.2-7.8 21.9-23.2 1.1-2.1 1.8-5.9 1.8-9.6.1-5.1-.3-6.7-2.8-10.3a36.2 36.2 0 0 0-6.6-6.9c-2.1-1.6-3.5-3.3-3.3-4.2.4-1.2.3-1.2-.5-.2-.7 1.1-1.6 1-4.6-.6-5-2.7-16.4-3.7-25.6-2.3-6.4 1-7.5 1-9.1-.5-1.8-1.6-1.8-1.8 1.1-5 3.3-3.8 4.5-8.7 3.5-13.5-.7-3.2-1.3-4.2-4.6-7.9-1.5-1.6-1.5-1.9-.1-3.4 1.4-1.4 1.5-2.9.3-14.3-.7-7-1.6-13-2-13.3-.4-.3-1.4-4-2.1-8.3-.7-4.2-1.6-7.7-2-7.7-.4 0-1.3-2.6-2-5.8a33 33 0 0 0-2-6.7c-.4-.6-1.3-3.2-1.9-6-.7-2.7-1.8-5.6-2.4-6.4-1-1.2-.8-1.2 1.3-.1a71.7 71.7 0 0 0 20.6 10c1 1 11.1 3.7 17.8 4.8 4.5.8 41.3-.2 42.2-1.1.4-.3-1.1-3-3.1-5.9a111.4 111.4 0 0 0-32-28.7c-16.9-11.2-22.8-14.4-28.5-15.6a89 89 0 0 0-30-4.8l-9.9-.2-.7-3c-.8-3.8-5.7-8.5-8.8-8.5-1.3 0-3-.2-3.8-.4-.7-.2-2-.2-2.8 0zm4.7 4.5c3.3 1.2 4.3 2.6 4.3 6 0 7.2-12.3 9-16.5 2.5-2.2-3.3-1.2-6 2.8-8 3.8-1.9 5.6-2 9.4-.5zm32.3 14c17.3 4 32 10.4 46 20 8.8 6 27 22.3 27 24.1 0 1.6-22.4.2-34.5-2.1a108.4 108.4 0 0 1-40-15.6 35.6 35.6 0 0 1-7.2-10.7c-2.3-4.6-5.8-10.4-7.7-13a28 28 0 0 1-3.6-5.4c0-.9 10.2.4 20 2.7zm-19.6 5.8c5.3 10.8 5.3 11.1 1.4 11.1-7.8 0-16.6 9.4-18.3 19.5a63 63 0 0 1-1.8 7.2c-1 3-1.2 3.1-3.6 1.9a18.7 18.7 0 0 0-13.6-1.6c-9.7 2-17.5 10.1-17.5 18.1a22 22 0 0 0 7.3 14.1 20.7 20.7 0 0 0 26.6-1.2c2.5-2.5 4.2-5.2 4.7-7.4.8-4.4 1.8-4.5 5.1-.6 5.6 6.7 17.1 10.9 24.3 9 2.2-.6 5.3-2.2 7-3.7 1.7-1.4 3.2-2.4 3.4-2.2.2.2 1.3 4.4 2.5 9.4l3.2 12.8c1.2 4.5.6 5.6-1.8 3.5-8.5-7.4-21.5-5.9-32.2 3.8a39.8 39.8 0 0 0-12.1 23.2c-.2 1.2-3.1.2-10.7-4.1-14.2-7.9-28-20.8-35.7-33-2.7-4.3-3.1-2.5-.5 2.5a76.7 76.7 0 0 0 38.8 35c7.4 3.4 9.2 3.9 13.1 3.4l4.5-.6 2 4.2c2.3 5 8.6 8.8 14.5 8.8 4.1 0 12.4-2.4 15.6-4.5 1.9-1.2 2.4-1.2 3.8.4.9 1 1.6 2.2 1.6 2.7s-2.8 2.2-6.1 3.8a60 60 0 0 0-12.7 9.3l-6.6 6.4-6.1-2.5c-19.7-8.4-40.3-9.3-55.1-2.6-6.6 3-14.1 9.7-16.9 15-2.3 4.5-4.8 17.1-3.6 18.3.5.5 1.3-1.1 2-4.5 2.7-12.4 9.4-20.9 19.8-24.8 7.9-2.9 8-2.9 7.5 3.4-.6 7.3 2 11.5 9 15 9.5 4.7 22.3 3.1 29-3.6 3.3-3.3 3.8-4.4 3.8-8.4 0-4.5.1-4.6 2.8-4a75.6 75.6 0 0 1 35.2 25.2c0 3.5-19.5 14.1-31.1 16.9-9.6 2.2-30.4 2.9-43.7 1.3a46.6 46.6 0 0 0-11.7-.7c-.8 1.2 14.4 5 24.2 6a100 100 0 0 0 29.6-1.2 95.4 95.4 0 0 0 30.5-15.4l5.2-4.7 3 2.5c1.6 1.4 4.6 3.1 6.7 3.7l5.1 1.6c.9.2-.4 2.8-3.7 7.8a193 193 0 0 1-99.9 75.1c-8.1 2.6-11.1 2.7-8 .2 8.4-6.8 14.2-28.1 11.8-43.3-2.7-16.8-14.6-27.6-32.1-29.1l-7.1-.6.7-4.1c1.2-7.7 4.5-51.1 4.5-60.1 0-9.5-2.3-40.7-4-53.5-1.1-7.8-4.2-25.8-6-34.5a55 55 0 0 1-.5-12.6l.7-7.5 4.1-.3c8.4-.4 14.4-5.5 15.4-12.7l.5-4 10.7-4.2c10-4 28.4-9.2 32.3-9.2 1 0 3.2.9 5 2 1.8 1.1 5 2 7.1 2 4.3 0 10.6-2.6 11.4-4.7 1-2.5 2.3-1.3 5.7 5.6zm-81 6.2c4.5 3.6 2.6 9.8-4 12.5-4.8 2-10.4-.7-10.4-5.1 0-3 7.2-9.4 10.6-9.5.6 0 2.3.9 3.8 2.1zm-14.1 19.5-.3 14.6c-.2 11.5-.3 11.8-3.8 18-5.3 9.1-21.6 25-33.7 33-11 7.2-22.4 13.3-23.3 12.4-.3-.4.2-3.1 1.2-6.2a135.8 135.8 0 0 1 47.9-67.9c11.6-8.6 12.3-8.8 12-3.9zm101.1 3c2.4.9 1.9 2.2-1.3 3.9a49.3 49.3 0 0 0-14.8 15l-2 3.8-1.6-2.4c-2.3-3.2-2.1-9.7.3-13.7 3.3-5.3 13.6-8.8 19.4-6.6zm9 8.5c2.1 5 .5 10.7-4.3 15.1-3.9 3.7-6.1 4.4-12.1 3.9-3.8-.3-8-2.2-8-3.7 0-2 1.6-2.5 3-.9 1.5 1.8 5.1 2 6.8.3 1.9-1.9 1.4-5.5-1-7.2-2-1.4-2.1-1.8-.7-3.1a52.8 52.8 0 0 1 13.7-7.4c.7-.1 1.9 1.3 2.6 3zm-38.7 6.5c3.3 2.5 7.2 8.8 6.1 9.9-.3.3-1.8 0-3.4-.6-1.6-.7-7.2-1.2-12.4-1.3-7.4 0-10.2.3-12.9 1.8l-3.4 1.8.7-2.8a16.2 16.2 0 0 1 25.3-8.8zm1 11.9c2.4.4 4.5 1 4.8 1.5.8 1.3-3.8 7.3-7.4 9.7-5.8 3.9-14.8 2.6-20-3-1.4-1.5-2.1-3.3-1.8-4.1.9-2.2 2.7-2 2.7.2 0 1.1.9 2.7 2 3.7 1.7 1.5 2.4 1.6 4.5.7 2.4-1.1 2.9-2.4 2.5-6.9-.1-1.7.5-2.2 2.7-2.6 1.5-.2 3.5-.3 4.3-.1l5.7.9zm48.9 36.1c4 1.9 5 3.2 3.6 4.6-.7.7-1.4.3-2.1-1.1-2.4-4.3-11.8-1.7-14.1 3.9-1.4 3.5-.8 4.9 1.4 3.1 1-.8 2.1-.9 3.2-.3 1.4.8 1.3 1.2-1.2 2.9-4.5 3.2-13.1 7.3-13.8 6.6-1.2-1.3-.6-4.3 1-4.3 3 0 .7-2.5-2.9-3.1a9 9 0 0 0-6.7 1.2c-3.7 2.3-3.8 1.6-.5-2.7 7.4-9.6 23.3-15 32.1-10.8zm1.1 8.6c4.7 5.1 6.3 8 6.3 11.3 0 8-9.4 14.6-22.1 15.3-7.2.4-7.9.3-10.2-2-2.5-2.6-6.2-13.1-5.2-14.8 1.4-2.3 3.3-.8 3.8 3.1.7 5 4.7 9.5 9.7 10.9 8.4 2.3 20-5.2 20-12.9 0-3-3.3-8.4-6.5-10.5-1.4-.9-2.5-2.1-2.5-2.6 0-2.1 3.8-.8 6.7 2.2zm38.8 37.5c10.8 5.6 15.9 13.6 14.6 22.9a25.7 25.7 0 0 1-26.3 22.4c-9.5 0-15.2-3.1-25.3-13.7a90.5 90.5 0 0 0-13.9-12.3 19 19 0 0 1-5.6-4.6c0-1.9 9.5-10.1 15.1-13a39.3 39.3 0 0 1 24.4-5.1c10.1.3 11.5.6 17 3.4zm-193.7 68.9c1.6.5 2.1 1.2 1.7 2.2a114.3 114.3 0 0 0 6.6 66.3c2.1 4.3 1.5 5.2-2.7 4-1.9-.5-3.5-1.9-4.6-4.2-2.5-5-6.6-17.6-7.8-23.9-1.8-9.1-1.3-40.8.7-44.3.5-.9 3-.9 6.1-.1z" />
    </g>

    <!-- (3) The outer circle -->
    <g>
        <circle r="220" cy="250" cx="250" stroke-width="60" style="fill: transparent" />

        <!-- (3a) Marieke overlays -->
        <path style="fill: #ffffff; stroke: none" d="M256.9 67.4 a1,1 0 0,0 -18,0" />
        <path style="fill: #ffffff; stroke: none" d="M242 61.5 a1,1 0 0,0 -29,12" />
        <path style="fill: #ffffff; stroke: none" d="M213.4 67 a1,1 0 0,0 -21,2" />

        <path style="fill: #ffffff; stroke: none" fill-rule="evenodd"
              d="M185.5,71.333c0.611,0.15-2.923,4.521-14.5,12.668-4.73,3.329-9.323,5.6-14,9-3.526,2.562-30.046,13.357-32,13-8.276-1.512-8.847-1.769-21-1C123.967,87.869,159.517,63.065,185.5,71.333ZM72,143c-3.862,5.027-4.152,5.817-7,15H63l-1-9C65.379,146.113,70.19,142.051,72,143Z"/>

        <path style="fill: #ffffff; stroke: none" fill-rule="evenodd"
              d="M72,143c-3.862,5.027-4.152,5.817-7,15H63l-1-9C65.379,146.113,70.19,142.051,72,143Z"/>

        <path style="fill: #f3b317; stroke: none" fill-rule="evenodd"
              d="M140,105c6.149-.115,14.456-0.625,19,1-34.606,17.785-66.7,33.832-97,85-4.828,7.843-.464-12.424,1-20,2.736-14.154,12.1-25.36,20-36,7.507-10.113,27.451-20.775,40-26C128.063,106.892,134.3,105.752,140,105Zm-18,1c-12.212,5.151-13.322,5.644-22,11-6.67,4.116-14.337,8.879-19,15,1.946-2.554-21.19,11.287-33,31,0,1.88-2.333-9.546,7-25,4.491-7.436,15.37-17.829,23-22C98.181,104.969,107.988,107,122,106Z"/>

        <!-- (3b) Clara overlays -->
        <path style="fill: #ffffff; stroke: none"
              d="M423.5 174 L439 186 L453 198 L432.7 198.5" />
        <path style="fill: #ffffff; stroke: none"
              d="M415.7 343.4 a1,1 0 0,0 0,-47" />
    </g>

    <!-- (4) The J-POP logo -->
    <!-- Note: each "block" in the pixelated logo has 7 pixel edges on a 500x500 canvas -->
    <g>
        <path style="fill: #ffffff; stroke: none" transform="rotate(-18)"
              d="M153 76 h21 v28 h-7 v7 h-14 v-14 h-7 v7 h21 v-21 h-14"/>
        <circle r="14" cx="216" cy="28" style="fill: #ffffff; stroke: none" />
        <path style="fill: #ffffff; stroke: none"
              d="M239 9 h21 v7 h7 v14 h-7 v-14 h-14 v14 h14 v7 h-14 v7 h-7 v-35"/>
        <path style="fill: #ffffff; stroke: none" transform="rotate(9)"
              d="M292 -32 h7 v28 h7 v-21 h-28 v21 h21 v7 h-14 v-35"/>
        <path style="fill: #ffffff; stroke: none" transform="rotate(18)"
              d="M313 -78 h21 v7 h7 v14 h-7 v-14 h-14 v14 h14 v7 h-14 v7 h-7 v-35"/>
    </g>

    <!-- (5) The Volunteer Portal logo -->
    <g>
      <path style="fill: transparent; stroke: none" id="curve" d="M17 250 a1,1 0,0 0 466 0" />
      <text x="73%" y="50%" alignment-baseline="middle" text-anchor="middle">
          <textPath xlink:href="#curve" style="fill: white; stroke: none" id="title">
              Steward Team
          </textPath>
      </text>
    </g>

    <!-- (6) JavaScript to tie it all together -->
    <script type="application/javascript">
    <![CDATA[
        if (typeof window.URL !== 'undefined' && typeof window.URLSearchParams !== 'undefined') {
            const params = (new URL(document.location)).searchParams;
            if (params.has('color')) {
                const color = params.get('color');
                const rule = 'circle, path { fill: ' + color + '; stroke: ' + color + '; }';

                for (const styleSheet of document.styleSheets) {
                    styleSheet.insertRule(rule, styleSheet.cssRules.length);
                    break;
                }
            }

            if (params.has('title')) {
                const title = params.get('title');
                const titleElement = document.getElementById('title');

                if (titleElement)
                    titleElement.textContent = title;
            }
        }
    ]]>
    </script>
</svg>
